# xmcd
#
# Track frame offsets:
#	150
#	11014
#	25113
#	33982
#	42006
#	55145
#	68199
#	82649
#	97162
#	113203
#	130277
#	138944
#	149279
#
# Disc length: 2263 seconds
#
# Revision: 0
# Processed by: cddbd v1.5.2PL0 Copyright (c) Steve Scherf et al.
# Submitted via: EasyCDDAExtractor 16.0.6.1
#
DISCID=a708d50d
DTITLE=Tetê Espíndola - Pássaaros na Garganta
DYEAR=1982
DGENRE=Latin
TTITLE0=Amor e Guavira
TTITLE1=Cunhaitaporã
TTITLE2=Canção dos Vagalumes
TTITLE3=Olhos de Jacaré
TTITLE4=Fio de Cabelo
TTITLE5=Cuiabá
TTITLE6=Pássaros na Garganta
TTITLE7=Sertaneja
TTITLE8=Longos Prazeres de Amor
TTITLE9=Pasisagem Fluvial
TTITLE10=Ibiporã
TTITLE11=Jaguadarte/Galadriel
TTITLE12=Sertão
EXTD=
EXTT0=
EXTT1=
EXTT2=
EXTT3=
EXTT4=
EXTT5=
EXTT6=
EXTT7=
EXTT8=
EXTT9=
EXTT10=
EXTT11=
EXTT12=
PLAYORDER=
